<?xml version="1.0" encoding="UTF-8" standalone="no"?>
<!DOCTYPE svg PUBLIC "-//W3C//DTD SVG 1.1//EN" "http://www.w3.org/Graphics/SVG/1.1/DTD/svg11.dtd">
<svg width="100%" height="100%" viewBox="0 0 30 30" version="1.1" xmlns="http://www.w3.org/2000/svg" xmlns:xlink="http://www.w3.org/1999/xlink" xml:space="preserve" xmlns:serif="http://www.serif.com/" style="fill-rule:evenodd;clip-rule:evenodd;stroke-linejoin:round;stroke-miterlimit:2;">
    <g transform="matrix(1,0,0,1,-44.2642,-369.372)">
        <g transform="matrix(1,0,0,1,59.2642,398.745)">
            <path d="M0,-29.373C-8.288,-29.373 -15,-22.657 -15,-14.373C-15,-7.745 -10.703,-2.123 -4.744,-0.142C-3.994,0 -3.719,-0.464 -3.719,-0.863C-3.719,-1.219 -3.731,-2.164 -3.738,-3.414C-7.91,-2.508 -8.79,-5.425 -8.79,-5.425C-9.473,-7.157 -10.459,-7.62 -10.459,-7.62C-11.818,-8.549 -10.354,-8.531 -10.354,-8.531C-8.848,-8.425 -8.057,-6.986 -8.057,-6.986C-6.719,-4.692 -4.545,-5.354 -3.688,-5.738C-3.553,-6.708 -3.167,-7.37 -2.738,-7.745C-6.069,-8.12 -9.57,-9.41 -9.57,-15.157C-9.57,-16.794 -8.989,-18.132 -8.026,-19.182C-8.195,-19.56 -8.702,-21.086 -7.895,-23.152C-7.895,-23.152 -6.639,-23.555 -3.77,-21.614C-2.57,-21.948 -1.295,-22.113 -0.02,-22.121C1.255,-22.113 2.53,-21.948 3.73,-21.614C6.58,-23.555 7.836,-23.152 7.836,-23.152C8.642,-21.086 8.136,-19.56 7.986,-19.182C8.942,-18.132 9.523,-16.794 9.523,-15.157C9.523,-9.394 6.017,-8.125 2.68,-7.757C3.205,-7.307 3.692,-6.387 3.692,-4.982C3.692,-2.974 3.673,-1.362 3.673,-0.874C3.673,-0.481 3.936,-0.012 4.705,-0.162C10.706,-2.129 15,-7.754 15,-14.373C15,-22.657 8.284,-29.373 0,-29.373" style="fill:rgb(171,178,190);fill-rule:nonzero;"/>
        </g>
    </g>
</svg>
