<?xml version="1.0" encoding="UTF-8" standalone="no"?>
<!DOCTYPE svg PUBLIC "-//W3C//DTD SVG 1.1//EN" "http://www.w3.org/Graphics/SVG/1.1/DTD/svg11.dtd">
<svg width="100%" height="100%" viewBox="0 0 30 30" version="1.1" xmlns="http://www.w3.org/2000/svg" xmlns:xlink="http://www.w3.org/1999/xlink" xml:space="preserve" xmlns:serif="http://www.serif.com/" style="fill-rule:evenodd;clip-rule:evenodd;stroke-linejoin:round;stroke-miterlimit:2;">
    <g transform="matrix(1,0,0,1,-44.2638,-426.704)">
        <g>
            <g transform="matrix(1,0,0,1,64.5088,445.742)">
                <path d="M0,-8.102C-0.651,-8.102 -1.179,-8.631 -1.179,-9.282C-1.179,-9.931 -0.65,-10.459 0,-10.459C0.649,-10.46 1.179,-9.931 1.179,-9.282C1.179,-8.63 0.65,-8.102 0,-8.102M-5.245,1.007C-8.03,1.007 -10.29,-1.249 -10.29,-4.038C-10.29,-6.823 -8.033,-9.082 -5.245,-9.082C-2.459,-9.082 -0.2,-6.826 -0.2,-4.038C-0.2,-1.252 -2.457,1.007 -5.245,1.007M2.415,-9.831C2.237,-10.291 2.024,-10.619 1.681,-10.962C1.335,-11.305 1.01,-11.518 0.549,-11.696C0.204,-11.831 -0.316,-11.991 -1.274,-12.036C-2.31,-12.081 -2.623,-12.094 -5.245,-12.094L-5.282,-12.119C-7.909,-12.119 -8.216,-12.106 -9.26,-12.07C-10.218,-12.02 -10.734,-11.861 -11.079,-11.725C-11.544,-11.553 -11.864,-11.332 -12.208,-10.99C-12.552,-10.645 -12.772,-10.326 -12.944,-9.859C-13.08,-9.515 -13.238,-8.988 -13.288,-8.03C-13.325,-6.986 -13.338,-6.666 -13.338,-4.049C-13.338,-1.434 -13.325,-1.116 -13.288,-0.083C-13.238,0.875 -13.08,1.403 -12.944,1.747C-12.772,2.202 -12.552,2.533 -12.208,2.877C-11.864,3.22 -11.544,3.429 -11.079,3.612C-10.734,3.748 -10.207,3.907 -9.248,3.957C-8.206,4.005 -7.898,4.017 -5.27,4.017C-2.641,4.017 -2.334,4.007 -1.291,3.961C-0.333,3.917 0.195,3.756 0.539,3.622C0.994,3.444 1.326,3.232 1.668,2.888C2.013,2.543 2.221,2.217 2.405,1.757C2.54,1.412 2.7,0.891 2.75,-0.067C2.798,-1.102 2.81,-1.415 2.81,-4.038C2.81,-6.661 2.799,-6.972 2.752,-8.008C2.709,-8.966 2.549,-9.486 2.415,-9.831" style="fill:rgb(171,178,190);fill-rule:nonzero;"/>
            </g>
            <g transform="matrix(-1,0,0,1,59.2642,444.98)">
                <path d="M0,-6.55C1.81,-6.55 3.275,-5.085 3.275,-3.276C3.275,-1.466 1.81,0 0,0C-1.809,0 -3.275,-1.466 -3.275,-3.276C-3.275,-5.085 -1.809,-6.55 0,-6.55" style="fill:rgb(171,178,190);fill-rule:nonzero;"/>
            </g>
            <g transform="matrix(1,0,0,1,69.0298,437.653)">
                <path d="M0,8.102C-0.048,9.147 -0.214,9.861 -0.457,10.487C-0.707,11.134 -1.044,11.681 -1.59,12.227C-2.136,12.773 -2.685,13.11 -3.331,13.361C-3.957,13.603 -4.67,13.768 -5.715,13.818C-6.764,13.864 -7.097,13.876 -9.766,13.876C-12.435,13.876 -12.768,13.867 -13.816,13.818C-14.862,13.769 -15.574,13.603 -16.201,13.361C-16.848,13.111 -17.396,12.773 -17.942,12.227C-18.488,11.681 -18.825,11.132 -19.075,10.487C-19.318,9.861 -19.483,9.147 -19.532,8.102C-19.579,7.054 -19.591,6.72 -19.591,4.051C-19.591,1.382 -19.581,1.049 -19.532,0.001C-19.483,-1.045 -19.318,-1.757 -19.075,-2.384C-18.825,-3.031 -18.488,-3.579 -17.942,-4.125C-17.396,-4.67 -16.847,-5.007 -16.201,-5.257C-15.575,-5.501 -14.863,-5.666 -13.816,-5.714C-12.768,-5.761 -12.435,-5.774 -9.766,-5.774C-7.097,-5.774 -6.764,-5.764 -5.715,-5.714C-4.67,-5.667 -3.957,-5.501 -3.331,-5.257C-2.683,-5.008 -2.136,-4.67 -1.59,-4.125C-1.044,-3.579 -0.707,-3.03 -0.457,-2.384C-0.214,-1.758 -0.049,-1.044 0,0.001C0.047,1.049 0.059,1.382 0.059,4.051C0.059,6.72 0.049,7.054 0,8.102M-9.766,-10.949C-18.05,-10.949 -24.766,-4.233 -24.766,4.051C-24.766,12.335 -18.05,19.051 -9.766,19.051C-1.481,19.051 5.234,12.335 5.234,4.051C5.234,-4.233 -1.481,-10.949 -9.766,-10.949" style="fill:rgb(171,178,190);fill-rule:nonzero;"/>
            </g>
        </g>
    </g>
</svg>
