<?xml version="1.0" encoding="UTF-8" standalone="no"?>
<!DOCTYPE svg PUBLIC "-//W3C//DTD SVG 1.1//EN" "https://www.w3.org/Graphics/SVG/1.1/DTD/svg11.dtd">
<svg width="100%" height="100%" viewBox="0 0 30 30" version="1.1" xmlns="https://www.w3.org/2000/svg" xmlns:xlink="https://www.w3.org/1999/xlink" xml:space="preserve" xmlns:serif="https://www.serif.com/" style="fill-rule:evenodd;clip-rule:evenodd;stroke-linejoin:round;stroke-miterlimit:2;">
    <g transform="matrix(1,0,0,1,-44.2644,-311.296)">
        <g transform="matrix(1,0,0,1,68.2974,317.258)">
            <path d="M0,18.076L-3.801,18.076L-3.801,12.121C-3.801,10.701 -3.83,8.873 -5.782,8.873C-7.763,8.873 -8.065,10.419 -8.065,12.016L-8.065,18.076L-11.866,18.076L-11.866,5.83L-8.215,5.83L-8.215,7.499L-8.166,7.499C-7.656,6.537 -6.416,5.521 -4.562,5.521C-0.712,5.521 0,8.055 0,11.354L0,18.076ZM-18.063,5.83L-14.252,5.83L-14.252,18.076L-18.063,18.076L-18.063,5.83ZM-16.158,-0.259C-14.939,-0.259 -13.951,0.73 -13.951,1.947C-13.951,3.164 -14.94,4.155 -16.158,4.155C-17.381,4.155 -18.364,3.164 -18.364,1.947C-18.364,0.73 -17.38,-0.259 -16.158,-0.259M3.798,1.299C2.538,-0.785 0.79,-2.533 -1.294,-3.794C-3.556,-5.16 -6.198,-5.962 -9.033,-5.962C-11.869,-5.962 -14.511,-5.16 -16.772,-3.794C-18.857,-2.533 -20.605,-0.785 -21.865,1.299C-23.232,3.561 -24.033,6.203 -24.033,9.038C-24.033,11.874 -23.232,14.516 -21.865,16.777C-20.605,18.862 -18.857,20.61 -16.772,21.87C-14.511,23.237 -11.869,24.038 -9.033,24.038C-6.198,24.038 -3.556,23.237 -1.294,21.87C0.79,20.61 2.538,18.862 3.798,16.777C5.166,14.516 5.967,11.874 5.967,9.038C5.967,6.203 5.166,3.561 3.798,1.299" style="fill:rgb(171,178,190);fill-rule:nonzero;"/>
        </g>
    </g>
</svg>
